<?xml version="1.0" standalone="no"?>
<!DOCTYPE svg PUBLIC "-//W3C//DTD SVG 20010904//EN"
 "http://www.w3.org/TR/2001/REC-SVG-20010904/DTD/svg10.dtd">
<svg version="1.0" xmlns="http://www.w3.org/2000/svg"
 width="1650.000000pt" height="1650.000000pt" viewBox="0 0 1650.000000 1650.000000"
 preserveAspectRatio="xMidYMid meet">
<metadata>
Created by potrace 1.11, written by Peter Selinger 2001-2013
</metadata>
<g transform="translate(0.000000,1650.000000) scale(0.100000,-0.100000)"
fill="#000000" stroke="none">
<path d="M360 8250 l0 -7890 7890 0 7890 0 0 7890 0 7890 -7890 0 -7890 0 0
-7890z m8608 5357 c851 -96 1431 -282 1957 -628 734 -482 1143 -1159 1251
-2069 22 -179 25 -606 6 -755 -71 -552 -284 -996 -657 -1371 -239 -239 -503
-425 -857 -600 -84 -41 -154 -77 -156 -79 -2 -1 41 -18 95 -35 985 -326 1490
-953 1639 -2036 13 -95 18 -260 24 -814 8 -742 12 -813 66 -1105 85 -468 202
-734 413 -940 l61 -59 0 -73 0 -73 -1105 0 -1105 0 -45 41 c-100 92 -204 268
-258 434 -65 197 -107 458 -148 915 -6 69 -15 429 -19 800 -8 715 -9 741 -61
945 -87 344 -263 617 -522 814 -217 164 -492 265 -819 300 -62 7 -492 11
-1198 11 l-1100 0 0 -2130 0 -2130 -1065 0 -1065 0 0 5330 0 5331 2263 -4
c2005 -3 2278 -5 2405 -20z"/>
<path d="M6435 11978 c-3 -7 -4 -706 -3 -1553 l3 -1540 965 -3 c1004 -3 1186
2 1409 38 622 102 1014 400 1175 894 91 277 108 648 45 972 -54 284 -180 532
-369 728 -247 257 -555 395 -1020 457 -57 8 -434 13 -1143 16 -870 4 -1058 2
-1062 -9z"/>
</g>
</svg>
